# xmcd CD database file
#
# Track frame offsets:
#	150
#	13477
#	28155
#	42007
#	55240
#	71190
#	87162
#	101557
#	119135
#	132142
#	145930
#	159020
#
# Disc length: 2317 seconds
#
# Revision: 0
# Processed by: cddbd v1.4PL0 Copyright (c) Steve Scherf et al.
# Submitted via: Feurio! 1.66 - http://www.feurio.com
#
DISCID=a7090b0c
DTITLE=Die Charly´s - Ich Mal Zwei Herzen An Den Himmel
DYEAR=1900
DGENRE=
TTITLE0=Ich Mal Zwei Herzen An Den Himmel
TTITLE1=Liebe Die Wie Feuer Brennt
TTITLE2=Spanische Augen
TTITLE3=Ich Träume Jede Nacht Von Dir
TTITLE4=Das Zauberwort Heisst Liebe
TTITLE5=My Lady Sunshine
TTITLE6=Santo Domingo
TTITLE7=Schneeweisser Strand Von Barbados
TTITLE8=Saxromanze
TTITLE9=Rosika
TTITLE10=Komm Gib Mir Deine Hand
TTITLE11=Arrivederci
EXTD=
EXTT0=
EXTT1=
EXTT2=
EXTT3=
EXTT4=
EXTT5=
EXTT6=
EXTT7=
EXTT8=
EXTT9=
EXTT10=
EXTT11=
PLAYORDER=
